<mxfile host="drawio-plugin" modified="2022-10-25T02:24:14.153Z" agent="5.0 (Windows NT 6.2; Win64; x64) AppleWebKit/537.36 (KHTML, like Gecko) Chrome/87.0.4280.141 Safari/537.36" etag="lOzOzQ0avXBdstqx6khr" version="15.5.4" type="embed" pages="3"><diagram id="23iRSUPoRavnBvh4doch" name="list-annotation"><mxGraphModel dx="341" dy="586" grid="1" gridSize="10" guides="1" tooltips="1" connect="1" arrows="1" fold="1" page="1" pageScale="1" pageWidth="827" pageHeight="1169" math="0" shadow="0"><root><mxCell id="0"/><mxCell id="1" parent="0"/><mxCell id="3" value="Annotation: MyTable" style="swimlane;fontStyle=1;align=center;verticalAlign=top;childLayout=stackLayout;horizontal=1;startSize=26;horizontalStack=0;resizeParent=1;resizeParentMax=0;resizeLast=0;collapsible=1;marginBottom=0;" parent="1" vertex="1"><mxGeometry x="80" y="40" width="160" height="110" as="geometry"/></mxCell><mxCell id="4" value="+ ..." style="text;strokeColor=none;fillColor=none;align=left;verticalAlign=top;spacingLeft=4;spacingRight=4;overflow=hidden;rotatable=0;points=[[0,0.5],[1,0.5]];portConstraint=eastwest;" parent="3" vertex="1"><mxGeometry y="26" width="160" height="26" as="geometry"/></mxCell><mxCell id="5" value="" style="line;strokeWidth=1;fillColor=none;align=left;verticalAlign=middle;spacingTop=-1;spacingLeft=3;spacingRight=3;rotatable=0;labelPosition=right;points=[];portConstraint=eastwest;" parent="3" vertex="1"><mxGeometry y="52" width="160" height="8" as="geometry"/></mxCell><mxCell id="6" value="+ table(): String&#10;+ schema(): String" style="text;strokeColor=none;fillColor=none;align=left;verticalAlign=top;spacingLeft=4;spacingRight=4;overflow=hidden;rotatable=0;points=[[0,0.5],[1,0.5]];portConstraint=eastwest;" parent="3" vertex="1"><mxGeometry y="60" width="160" height="50" as="geometry"/></mxCell><mxCell id="7" value="Annotation: MyKey" style="swimlane;fontStyle=1;align=center;verticalAlign=top;childLayout=stackLayout;horizontal=1;startSize=26;horizontalStack=0;resizeParent=1;resizeParentMax=0;resizeLast=0;collapsible=1;marginBottom=0;" parent="1" vertex="1"><mxGeometry x="320" y="40" width="160" height="86" as="geometry"/></mxCell><mxCell id="8" value="+ field: type" style="text;strokeColor=none;fillColor=none;align=left;verticalAlign=top;spacingLeft=4;spacingRight=4;overflow=hidden;rotatable=0;points=[[0,0.5],[1,0.5]];portConstraint=eastwest;" parent="7" vertex="1"><mxGeometry y="26" width="160" height="26" as="geometry"/></mxCell><mxCell id="9" value="" style="line;strokeWidth=1;fillColor=none;align=left;verticalAlign=middle;spacingTop=-1;spacingLeft=3;spacingRight=3;rotatable=0;labelPosition=right;points=[];portConstraint=eastwest;" parent="7" vertex="1"><mxGeometry y="52" width="160" height="8" as="geometry"/></mxCell><mxCell id="10" value="+ method(type): type" style="text;strokeColor=none;fillColor=none;align=left;verticalAlign=top;spacingLeft=4;spacingRight=4;overflow=hidden;rotatable=0;points=[[0,0.5],[1,0.5]];portConstraint=eastwest;" parent="7" vertex="1"><mxGeometry y="60" width="160" height="26" as="geometry"/></mxCell><mxCell id="11" value="Annotation: MyField" style="swimlane;fontStyle=1;align=center;verticalAlign=top;childLayout=stackLayout;horizontal=1;startSize=26;horizontalStack=0;resizeParent=1;resizeParentMax=0;resizeLast=0;collapsible=1;marginBottom=0;" parent="1" vertex="1"><mxGeometry x="80" y="200" width="160" height="86" as="geometry"/></mxCell><mxCell id="12" value="+ field: type" style="text;strokeColor=none;fillColor=none;align=left;verticalAlign=top;spacingLeft=4;spacingRight=4;overflow=hidden;rotatable=0;points=[[0,0.5],[1,0.5]];portConstraint=eastwest;" parent="11" vertex="1"><mxGeometry y="26" width="160" height="26" as="geometry"/></mxCell><mxCell id="13" value="" style="line;strokeWidth=1;fillColor=none;align=left;verticalAlign=middle;spacingTop=-1;spacingLeft=3;spacingRight=3;rotatable=0;labelPosition=right;points=[];portConstraint=eastwest;" parent="11" vertex="1"><mxGeometry y="52" width="160" height="8" as="geometry"/></mxCell><mxCell id="14" value="+ column(): String" style="text;strokeColor=none;fillColor=none;align=left;verticalAlign=top;spacingLeft=4;spacingRight=4;overflow=hidden;rotatable=0;points=[[0,0.5],[1,0.5]];portConstraint=eastwest;" parent="11" vertex="1"><mxGeometry y="60" width="160" height="26" as="geometry"/></mxCell><mxCell id="15" value="Annotation: MyRequestMapping" style="swimlane;fontStyle=1;align=center;verticalAlign=top;childLayout=stackLayout;horizontal=1;startSize=26;horizontalStack=0;resizeParent=1;resizeParentMax=0;resizeLast=0;collapsible=1;marginBottom=0;" parent="1" vertex="1"><mxGeometry x="80" y="360" width="190" height="110" as="geometry"/></mxCell><mxCell id="16" value="+ field: type" style="text;strokeColor=none;fillColor=none;align=left;verticalAlign=top;spacingLeft=4;spacingRight=4;overflow=hidden;rotatable=0;points=[[0,0.5],[1,0.5]];portConstraint=eastwest;" parent="15" vertex="1"><mxGeometry y="26" width="190" height="26" as="geometry"/></mxCell><mxCell id="17" value="" style="line;strokeWidth=1;fillColor=none;align=left;verticalAlign=middle;spacingTop=-1;spacingLeft=3;spacingRight=3;rotatable=0;labelPosition=right;points=[];portConstraint=eastwest;" parent="15" vertex="1"><mxGeometry y="52" width="190" height="8" as="geometry"/></mxCell><mxCell id="18" value="+ value(): String&#10;+ method(): String&#10;" style="text;strokeColor=none;fillColor=none;align=left;verticalAlign=top;spacingLeft=4;spacingRight=4;overflow=hidden;rotatable=0;points=[[0,0.5],[1,0.5]];portConstraint=eastwest;" parent="15" vertex="1"><mxGeometry y="60" width="190" height="50" as="geometry"/></mxCell></root></mxGraphModel></diagram><diagram id="SvlwAp9D10DuS4Hi_EWh" name="Annotation-Reflection-Kết hợp"><mxGraphModel dx="341" dy="586" grid="1" gridSize="10" guides="1" tooltips="1" connect="1" arrows="1" fold="1" page="1" pageScale="1" pageWidth="850" pageHeight="1100" math="0" shadow="0"><root><mxCell id="yl0KC2l4xbnX8_8owUdL-0"/><mxCell id="yl0KC2l4xbnX8_8owUdL-1" parent="yl0KC2l4xbnX8_8owUdL-0"/><mxCell id="Vk_YFvT5wjE2USGVxsrU-0" style="rounded=0;orthogonalLoop=1;jettySize=auto;html=1;exitX=0.5;exitY=1;exitDx=0;exitDy=0;entryX=0.5;entryY=0;entryDx=0;entryDy=0;" edge="1" parent="yl0KC2l4xbnX8_8owUdL-1" source="yl0KC2l4xbnX8_8owUdL-2" target="yl0KC2l4xbnX8_8owUdL-4"><mxGeometry relative="1" as="geometry"/></mxCell><mxCell id="yl0KC2l4xbnX8_8owUdL-2" value="Java Annotation" style="rounded=1;whiteSpace=wrap;html=1;" parent="yl0KC2l4xbnX8_8owUdL-1" vertex="1"><mxGeometry x="40" y="40" width="120" height="60" as="geometry"/></mxCell><mxCell id="Vk_YFvT5wjE2USGVxsrU-1" style="edgeStyle=none;rounded=0;orthogonalLoop=1;jettySize=auto;html=1;entryX=0.5;entryY=0;entryDx=0;entryDy=0;exitX=0.5;exitY=1;exitDx=0;exitDy=0;" edge="1" parent="yl0KC2l4xbnX8_8owUdL-1" source="yl0KC2l4xbnX8_8owUdL-3" target="yl0KC2l4xbnX8_8owUdL-4"><mxGeometry relative="1" as="geometry"/></mxCell><mxCell id="yl0KC2l4xbnX8_8owUdL-3" value="Java Reflection" style="rounded=1;whiteSpace=wrap;html=1;" parent="yl0KC2l4xbnX8_8owUdL-1" vertex="1"><mxGeometry x="240" y="40" width="120" height="60" as="geometry"/></mxCell><mxCell id="yl0KC2l4xbnX8_8owUdL-4" value="Annotation + Reflection" style="rounded=1;whiteSpace=wrap;html=1;" parent="yl0KC2l4xbnX8_8owUdL-1" vertex="1"><mxGeometry x="140" y="200" width="120" height="60" as="geometry"/></mxCell><mxCell id="yl0KC2l4xbnX8_8owUdL-5" value="Java Reflection API" style="rounded=1;whiteSpace=wrap;html=1;" parent="yl0KC2l4xbnX8_8owUdL-1" vertex="1"><mxGeometry x="40" y="320" width="120" height="60" as="geometry"/></mxCell></root></mxGraphModel></diagram><diagram id="fI3L9W1GZ91DIZ4ath0Y" name="gpcode-reflection"><mxGraphModel dx="341" dy="586" grid="1" gridSize="10" guides="1" tooltips="1" connect="1" arrows="1" fold="1" page="1" pageScale="1" pageWidth="850" pageHeight="1100" math="0" shadow="0"><root><mxCell id="M-AYsR4GFlt3eZXXIXiD-0"/><mxCell id="M-AYsR4GFlt3eZXXIXiD-1" parent="M-AYsR4GFlt3eZXXIXiD-0"/><mxCell id="M-AYsR4GFlt3eZXXIXiD-2" value="Abstract: Animal" style="swimlane;fontStyle=1;align=center;verticalAlign=top;childLayout=stackLayout;horizontal=1;startSize=26;horizontalStack=0;resizeParent=1;resizeParentMax=0;resizeLast=0;collapsible=1;marginBottom=0;" vertex="1" parent="M-AYsR4GFlt3eZXXIXiD-1"><mxGeometry x="40" y="40" width="160" height="86" as="geometry"/></mxCell><mxCell id="M-AYsR4GFlt3eZXXIXiD-3" value="+ field: type" style="text;strokeColor=none;fillColor=none;align=left;verticalAlign=top;spacingLeft=4;spacingRight=4;overflow=hidden;rotatable=0;points=[[0,0.5],[1,0.5]];portConstraint=eastwest;" vertex="1" parent="M-AYsR4GFlt3eZXXIXiD-2"><mxGeometry y="26" width="160" height="26" as="geometry"/></mxCell><mxCell id="M-AYsR4GFlt3eZXXIXiD-4" value="" style="line;strokeWidth=1;fillColor=none;align=left;verticalAlign=middle;spacingTop=-1;spacingLeft=3;spacingRight=3;rotatable=0;labelPosition=right;points=[];portConstraint=eastwest;" vertex="1" parent="M-AYsR4GFlt3eZXXIXiD-2"><mxGeometry y="52" width="160" height="8" as="geometry"/></mxCell><mxCell id="M-AYsR4GFlt3eZXXIXiD-5" value="+ getLocation(): String" style="text;strokeColor=none;fillColor=none;align=left;verticalAlign=top;spacingLeft=4;spacingRight=4;overflow=hidden;rotatable=0;points=[[0,0.5],[1,0.5]];portConstraint=eastwest;" vertex="1" parent="M-AYsR4GFlt3eZXXIXiD-2"><mxGeometry y="60" width="160" height="26" as="geometry"/></mxCell><mxCell id="M-AYsR4GFlt3eZXXIXiD-6" value="Interface: Say" style="swimlane;fontStyle=1;align=center;verticalAlign=top;childLayout=stackLayout;horizontal=1;startSize=26;horizontalStack=0;resizeParent=1;resizeParentMax=0;resizeLast=0;collapsible=1;marginBottom=0;" vertex="1" parent="M-AYsR4GFlt3eZXXIXiD-1"><mxGeometry x="280" y="40" width="160" height="86" as="geometry"/></mxCell><mxCell id="M-AYsR4GFlt3eZXXIXiD-7" value="+ field: type" style="text;strokeColor=none;fillColor=none;align=left;verticalAlign=top;spacingLeft=4;spacingRight=4;overflow=hidden;rotatable=0;points=[[0,0.5],[1,0.5]];portConstraint=eastwest;" vertex="1" parent="M-AYsR4GFlt3eZXXIXiD-6"><mxGeometry y="26" width="160" height="26" as="geometry"/></mxCell><mxCell id="M-AYsR4GFlt3eZXXIXiD-8" value="" style="line;strokeWidth=1;fillColor=none;align=left;verticalAlign=middle;spacingTop=-1;spacingLeft=3;spacingRight=3;rotatable=0;labelPosition=right;points=[];portConstraint=eastwest;" vertex="1" parent="M-AYsR4GFlt3eZXXIXiD-6"><mxGeometry y="52" width="160" height="8" as="geometry"/></mxCell><mxCell id="M-AYsR4GFlt3eZXXIXiD-9" value="+ say(): String" style="text;strokeColor=none;fillColor=none;align=left;verticalAlign=top;spacingLeft=4;spacingRight=4;overflow=hidden;rotatable=0;points=[[0,0.5],[1,0.5]];portConstraint=eastwest;" vertex="1" parent="M-AYsR4GFlt3eZXXIXiD-6"><mxGeometry y="60" width="160" height="26" as="geometry"/></mxCell><mxCell id="M-AYsR4GFlt3eZXXIXiD-14" style="edgeStyle=none;rounded=0;orthogonalLoop=1;jettySize=auto;html=1;" edge="1" parent="M-AYsR4GFlt3eZXXIXiD-1" source="M-AYsR4GFlt3eZXXIXiD-10" target="M-AYsR4GFlt3eZXXIXiD-2"><mxGeometry relative="1" as="geometry"/></mxCell><mxCell id="M-AYsR4GFlt3eZXXIXiD-15" value="&amp;lt;&amp;lt;extend&amp;gt;&amp;gt;" style="edgeLabel;html=1;align=center;verticalAlign=middle;resizable=0;points=[];" vertex="1" connectable="0" parent="M-AYsR4GFlt3eZXXIXiD-14"><mxGeometry x="-0.2078" relative="1" as="geometry"><mxPoint as="offset"/></mxGeometry></mxCell><mxCell id="M-AYsR4GFlt3eZXXIXiD-16" style="edgeStyle=none;rounded=0;orthogonalLoop=1;jettySize=auto;html=1;" edge="1" parent="M-AYsR4GFlt3eZXXIXiD-1" source="M-AYsR4GFlt3eZXXIXiD-10" target="M-AYsR4GFlt3eZXXIXiD-6"><mxGeometry relative="1" as="geometry"/></mxCell><mxCell id="M-AYsR4GFlt3eZXXIXiD-17" value="&amp;lt;&amp;lt;implement&amp;gt;&amp;gt;" style="edgeLabel;html=1;align=center;verticalAlign=middle;resizable=0;points=[];" vertex="1" connectable="0" parent="M-AYsR4GFlt3eZXXIXiD-16"><mxGeometry x="-0.2597" relative="1" as="geometry"><mxPoint as="offset"/></mxGeometry></mxCell><mxCell id="M-AYsR4GFlt3eZXXIXiD-10" value="Class: Cat" style="swimlane;fontStyle=1;align=center;verticalAlign=top;childLayout=stackLayout;horizontal=1;startSize=26;horizontalStack=0;resizeParent=1;resizeParentMax=0;resizeLast=0;collapsible=1;marginBottom=0;" vertex="1" parent="M-AYsR4GFlt3eZXXIXiD-1"><mxGeometry x="40" y="280" width="160" height="280" as="geometry"/></mxCell><mxCell id="M-AYsR4GFlt3eZXXIXiD-11" value="+ SAY: String&#10;+ NUMBER_OF_LEGS: int&#10;- name: String&#10;- age: int&#10;" style="text;strokeColor=none;fillColor=none;align=left;verticalAlign=top;spacingLeft=4;spacingRight=4;overflow=hidden;rotatable=0;points=[[0,0.5],[1,0.5]];portConstraint=eastwest;" vertex="1" parent="M-AYsR4GFlt3eZXXIXiD-10"><mxGeometry y="26" width="160" height="64" as="geometry"/></mxCell><mxCell id="M-AYsR4GFlt3eZXXIXiD-12" value="" style="line;strokeWidth=1;fillColor=none;align=left;verticalAlign=middle;spacingTop=-1;spacingLeft=3;spacingRight=3;rotatable=0;labelPosition=right;points=[];portConstraint=eastwest;" vertex="1" parent="M-AYsR4GFlt3eZXXIXiD-10"><mxGeometry y="90" width="160" height="8" as="geometry"/></mxCell><mxCell id="M-AYsR4GFlt3eZXXIXiD-13" value="+ SAY(): String - Override&#10;+ getter/setter&#10;+ " style="text;strokeColor=none;fillColor=none;align=left;verticalAlign=top;spacingLeft=4;spacingRight=4;overflow=hidden;rotatable=0;points=[[0,0.5],[1,0.5]];portConstraint=eastwest;" vertex="1" parent="M-AYsR4GFlt3eZXXIXiD-10"><mxGeometry y="98" width="160" height="182" as="geometry"/></mxCell><mxCell id="M-AYsR4GFlt3eZXXIXiD-18" value="&lt;div style=&quot;text-align: left&quot;&gt;&lt;span&gt;Các thông tin Reflection từ class&lt;/span&gt;&lt;/div&gt;&lt;div style=&quot;text-align: left&quot;&gt;&lt;span&gt;Class Name&lt;/span&gt;&lt;/div&gt;&lt;div style=&quot;text-align: left&quot;&gt;&lt;span&gt;Class Modifiers(public, private, synchronized...)&lt;/span&gt;&lt;/div&gt;&lt;div style=&quot;text-align: left&quot;&gt;&lt;span&gt;Package Info&lt;/span&gt;&lt;/div&gt;&lt;div style=&quot;text-align: left&quot;&gt;&lt;span&gt;Super class&lt;/span&gt;&lt;/div&gt;&lt;div style=&quot;text-align: left&quot;&gt;&lt;span&gt;Implemented Interfaces&lt;/span&gt;&lt;/div&gt;&lt;div style=&quot;text-align: left&quot;&gt;&lt;span&gt;Constructors&lt;/span&gt;&lt;/div&gt;&lt;div style=&quot;text-align: left&quot;&gt;&lt;span&gt;Methods&lt;/span&gt;&lt;/div&gt;&lt;div style=&quot;text-align: left&quot;&gt;&lt;span&gt;Fields&lt;/span&gt;&lt;/div&gt;&lt;div style=&quot;text-align: left&quot;&gt;&lt;span&gt;Annotation&lt;/span&gt;&lt;/div&gt;&lt;div style=&quot;text-align: left&quot;&gt;&lt;span&gt;....&lt;/span&gt;&lt;/div&gt;" style="rounded=0;whiteSpace=wrap;html=1;" vertex="1" parent="M-AYsR4GFlt3eZXXIXiD-1"><mxGeometry x="440" y="200" width="200" height="200" as="geometry"/></mxCell></root></mxGraphModel></diagram></mxfile>